# xmcd
#
# Track frame offsets: 
#        150
#        5500
#        10812
#        15875
#        21400
#        30987
#        38400
#        52062
#        67137
#        73675
#        88325
#        102650
#        113225
#        120687
#        134500
#        149300
#        158900
#        161425
#        166325
#        170737
#        174800
#        178212
#        181650
#        194612
#        206175
#        216337
#
# Disc length: 3023 seconds
#
# Revision: 0
# Processed by: cddbd v1.5.2PL0 Copyright (c) Steve Scherf et al.
# Submitted via: ExactAudioCopyFreeDBPlugin 1.0
#
DISCID=740bcd1a
DTITLE=多位藝術家 - 兒歌天地 2
DYEAR=1900
DGENRE=Pop
TTITLE0=叮噹
TTITLE1=忍者小靈精
TTITLE2=IQ博士
TTITLE3=430穿梭機
TTITLE4=藍精靈
TTITLE5=腦波子
TTITLE6=魔法小子
TTITLE7=新魔神英雄傳
TTITLE8=宇宙大帝
TTITLE9=伏魔小皇子
TTITLE10=新大鐵人十七
TTITLE11=Q太郎
TTITLE12=鐵人28
TTITLE13=捉鬼敢死隊
TTITLE14=大笨狗
TTITLE15=道理真巧妙
TTITLE16=有只雀仔跌落水
TTITLE17=高
TTITLE18=儲蓄歌
TTITLE19=清潔歌
TTITLE20=刷牙歌
TTITLE21=誰人要吃怪獸
TTITLE22=小宇宙
TTITLE23=肥皂泡
TTITLE24=1、2、2
TTITLE25=1、2、3再見
EXTD=
EXTT0=
EXTT1=
EXTT2=
EXTT3=
EXTT4=
EXTT5=
EXTT6=
EXTT7=
EXTT8=
EXTT9=
EXTT10=
EXTT11=
EXTT12=
EXTT13=
EXTT14=
EXTT15=
EXTT16=
EXTT17=
EXTT18=
EXTT19=
EXTT20=
EXTT21=
EXTT22=
EXTT23=
EXTT24=
EXTT25=
PLAYORDER=
